<?xml version="1.0"?>
<svg width="100" height="100" xmlns="http://www.w3.org/2000/svg" xmlns:svg="http://www.w3.org/2000/svg" enable-background="new 0 0 100 100" version="1.1" xml:space="preserve">

 <g class="layer">
  <title>Layer 1</title>
  <g id="svg_1">
   <path d="m59.32,42.28c-4.45,-2.57 -9.71,-3.6 -14.81,-2.92c-0.5,0.07 -0.86,0.51 -0.83,1.02l0.38,6.24c0.01,0.27 0.15,0.52 0.36,0.7c0.21,0.17 0.49,0.24 0.75,0.2c3.44,-0.56 7.03,0.1 10.06,1.85c3.01,1.74 5.36,4.5 6.6,7.76c0.1,0.26 0.3,0.46 0.55,0.56c0.12,0.04 0.24,0.07 0.36,0.07c0.15,0 0.29,-0.03 0.43,-0.1l5.59,-2.8c0.45,-0.22 0.66,-0.76 0.47,-1.23c-1.99,-4.81 -5.42,-8.73 -9.91,-11.33z" fill="#fff" id="svg_2"/>
   <path d="m65.4,31.75c-6.52,-3.77 -14.15,-5.38 -21.63,-4.56c-0.51,0.06 -0.89,0.51 -0.86,1.02l0.38,6.23c0.02,0.26 0.14,0.52 0.35,0.68c0.2,0.17 0.47,0.25 0.73,0.22c5.84,-0.7 11.83,0.53 16.93,3.48c5.15,2.97 9.1,7.43 11.45,12.88c0.1,0.24 0.31,0.44 0.56,0.53c0.1,0.04 0.22,0.06 0.33,0.06c0.15,0 0.3,-0.03 0.43,-0.1l5.58,-2.79c0.47,-0.23 0.66,-0.78 0.45,-1.25c-3.06,-6.94 -8.15,-12.61 -14.72,-16.4z" fill="#fff" id="svg_3"/>
   <path d="m91.43,42.49c-4.18,-9.15 -10.99,-16.65 -19.7,-21.68c-7.31,-4.22 -15.63,-6.46 -24.05,-6.46c-1.55,0 -3.12,0.08 -4.67,0.23c-0.52,0.05 -0.9,0.5 -0.87,1.02l0.39,6.23c0.01,0.26 0.14,0.5 0.33,0.68c0.2,0.17 0.46,0.25 0.73,0.22c8.32,-0.85 16.79,0.96 24.05,5.15c7.3,4.22 12.99,10.51 16.45,18.2c0.11,0.24 0.31,0.43 0.56,0.52c0.1,0.03 0.22,0.06 0.32,0.06c0.15,0 0.3,-0.03 0.43,-0.1l5.59,-2.79c0.46,-0.24 0.66,-0.79 0.45,-1.27z" fill="#fff" id="svg_4"/>
   <path d="m46.22,52.97c-3.27,0 -6.35,1.28 -8.67,3.59c-2.31,2.31 -3.59,5.39 -3.59,8.66c0,3.26 1.26,6.32 3.56,8.63l7.94,10c0.19,0.23 0.47,0.36 0.76,0.36c0.29,0 0.57,-0.13 0.76,-0.36l7.94,-10c2.29,-2.31 3.55,-5.38 3.55,-8.63c0,-3.27 -1.28,-6.34 -3.58,-8.66c-2.31,-2.31 -5.4,-3.59 -8.67,-3.59zm3.8,15.76c-1.02,1.01 -2.36,1.58 -3.8,1.58s-2.79,-0.56 -3.8,-1.58c-2.1,-2.1 -2.1,-5.51 0,-7.61c1.01,-1.02 2.36,-1.58 3.8,-1.58s2.78,0.56 3.8,1.58c2.1,2.1 2.1,5.51 0,7.61z" fill="#fff" id="svg_5"/>
  </g>
 </g>
</svg>
